name analog
datacolumns 19
datarows 34
range 0.14350000000000002 0.16
endheader
time	ground_force_vx	ground_force_vy	ground_force_vz	ground_force_px	ground_force_py	ground_force_pz	l_ground_force_vx	l_ground_force_vy	l_ground_force_vz	l_ground_force_px	l_ground_force_py	l_ground_force_pz	ground_torque_x	ground_torque_y	ground_torque_z	l_ground_torque_x	l_ground_torque_y	l_ground_torque_z
0.14350000000000002	-0.0	-0.0	-0.0	-0.0	-0.0	-0.0	-5.81130838394165	4.505903244018555	-496.3219909667969	-0.0	-0.0	-0.0	-0.0	-0.0	-0.0	167028.75	-18054.150390625	-2760.73828125
0.14400000000000002	-0.0	-0.0	-0.0	-0.0	-0.0	-0.0	-4.213072299957275	4.7286458015441895	-498.056640625	-0.0	-0.0	-0.0	-0.0	-0.0	-0.0	168040.375	-18635.671875	-2225.675048828125
0.1445	-0.0	-0.0	-0.0	-0.0	-0.0	-0.0	-2.5701608657836914	4.947235107421875	-498.3970642089844	-0.0	-0.0	-0.0	-0.0	-0.0	-0.0	168657.96875	-19358.1953125	-1884.4427490234373
0.145	-0.0	-0.0	-0.0	-0.0	-0.0	-0.0	-1.1072579622268677	5.165198802947998	-499.62744140625	-0.0	-0.0	-0.0	-0.0	-0.0	-0.0	169272.484375	-20003.029296875	-1453.3760986328125
0.1455	-0.0	-0.0	-0.0	-0.0	-0.0	-0.0	0.2232204675674438	5.388580799102783	-499.2868041992188	-0.0	-0.0	-0.0	-0.0	-0.0	-0.0	169357.75	-20513.873046875	-1021.399169921875
0.146	-0.0	-0.0	-0.0	-0.0	-0.0	-0.0	1.5088913440704346	5.034336090087891	-497.71722412109375	-0.0	-0.0	-0.0	-0.0	-0.0	-0.0	169080.71875	-21053.419921875	-412.9447021484375
0.1465	-0.0	-0.0	-0.0	-0.0	-0.0	-0.0	2.706021785736084	4.592044830322266	-495.26751708984375	-0.0	-0.0	-0.0	-0.0	-0.0	-0.0	168243.484375	-21103.98828125	-71.18386840820312
0.147	-0.0	-0.0	-0.0	-0.0	-0.0	-0.0	3.1500399112701416	3.885082721710205	-491.7811279296875	-0.0	-0.0	-0.0	-0.0	-0.0	-0.0	167158.71875	-21107.931640625	196.1333465576172
0.1475	-0.0	-0.0	-0.0	-0.0	-0.0	-0.0	3.237358331680298	2.7819387912750244	-490.90716552734375	-0.0	-0.0	-0.0	-0.0	-0.0	-0.0	166194.703125	-20957.86328125	195.6295318603516
0.148	-0.0	-0.0	-0.0	-0.0	-0.0	-0.0	2.0851054191589355	1.8550221920013428	-487.4156494140625	-0.0	-0.0	-0.0	-0.0	-0.0	-0.0	165253.84375	-20789.896484375	-131.75808715820312
0.1485	-0.0	-0.0	-0.0	-0.0	-0.0	-0.0	0.3548431396484375	1.457477569580078	-485.1463928222656	-0.0	-0.0	-0.0	-0.0	-0.0	-0.0	164449.015625	-20479.169921875	-577.9592895507812
0.149	-0.0	-0.0	-0.0	-0.0	-0.0	-0.0	-1.1532124280929563	1.1040072441101074	-483.5751037597656	-0.0	-0.0	-0.0	-0.0	-0.0	-0.0	163840.3125	-20039.47265625	-1142.59130859375
0.1495	-0.0	-0.0	-0.0	-0.0	-0.0	-0.0	-2.7498841285705566	1.0595613718032837	-481.8292236328125	-0.0	-0.0	-0.0	-0.0	-0.0	-0.0	163478.59375	-19866.498046875	-1529.3094482421875
0.15	-0.0	-0.0	-0.0	-0.0	-0.0	-0.0	-3.9922897815704346	1.4571563005447388	-483.225830078125	-0.0	-0.0	-0.0	-0.0	-0.0	-0.0	163523.75	-19673.470703125	-1900.9677734375
0.1505	-0.0	-0.0	-0.0	-0.0	-0.0	-0.0	-5.278078556060791	1.9426523447036743	-485.67327880859375	-0.0	-0.0	-0.0	-0.0	-0.0	-0.0	164092.578125	-19772.255859375	-2272.630615234375
0.151	-0.0	-0.0	-0.0	-0.0	-0.0	-0.0	-5.1458001136779785	2.649078607559204	-487.0642395019531	-0.0	-0.0	-0.0	-0.0	-0.0	-0.0	165242.375	-19823.41796875	-2583.566162109375
0.1515	-0.0	-0.0	-0.0	-0.0	-0.0	-0.0	-5.633496284484863	3.9737565517425537	-492.1334838867188	-0.0	-0.0	-0.0	-0.0	-0.0	-0.0	166624.453125	-20199.177734375	-2657.566650390625
0.152	-0.0	-0.0	-0.0	-0.0	-0.0	-0.0	-5.320112705230713	5.211820602416992	-496.500244140625	-0.0	-0.0	-0.0	-0.0	-0.0	-0.0	168142.703125	-20613.66796875	-2657.250244140625
0.1525	-0.0	-0.0	-0.0	-0.0	-0.0	-0.0	-4.612960815429688	5.916558265686035	-500.330322265625	-0.0	-0.0	-0.0	-0.0	-0.0	-0.0	169889.328125	-21128.16796875	-2657.544677734375
0.153	-0.0	-0.0	-0.0	-0.0	-0.0	-0.0	-4.035770416259766	6.492211818695068	-503.1185302734375	-0.0	-0.0	-0.0	-0.0	-0.0	-0.0	170752.625	-21532.95703125	-2642.465087890625
0.1535	-0.0	-0.0	-0.0	-0.0	-0.0	-0.0	-3.770839691162109	6.711191177368164	-505.9107666015625	-0.0	-0.0	-0.0	-0.0	-0.0	-0.0	171270.671875	-21835.59765625	-2359.4794921875
0.154	-0.0	-0.0	-0.0	-0.0	-0.0	-0.0	-2.530382871627808	5.917552947998047	-505.3997497558594	-0.0	-0.0	-0.0	-0.0	-0.0	-0.0	171445.234375	-22117.92578125	-2135.633544921875
0.1545	-0.0	-0.0	-0.0	-0.0	-0.0	-0.0	-1.683965802192688	4.812765598297119	-504.1689147949219	-0.0	-0.0	-0.0	-0.0	-0.0	-0.0	170944.828125	-21926.5859375	-1810.510986328125
0.155	-0.0	-0.0	-0.0	-0.0	-0.0	-0.0	-1.245325207710266	3.362942934036255	-502.9562377929688	-0.0	-0.0	-0.0	-0.0	-0.0	-0.0	170133.546875	-22101.41015625	-1630.42529296875
0.1555	-0.0	-0.0	-0.0	-0.0	-0.0	-0.0	-1.0174216032028198	1.6817657947540283	-500.8688354492188	-0.0	-0.0	-0.0	-0.0	-0.0	-0.0	168838.71875	-21916.939453125	-1542.2130126953125
0.156	-0.0	-0.0	-0.0	-0.0	-0.0	-0.0	-1.2814136743545532	-0.3042545914649963	-495.4538269042969	-0.0	-0.0	-0.0	-0.0	-0.0	-0.0	167033.140625	-21354.95703125	-1482.8817138671875
0.1565	-0.0	-0.0	-0.0	-0.0	-0.0	-0.0	-1.3739614486694336	-1.669703483581543	-488.8205871582031	-0.0	-0.0	-0.0	-0.0	-0.0	-0.0	164828.984375	-20924.98046875	-1499.082275390625
0.157	-0.0	-0.0	-0.0	-0.0	-0.0	-0.0	-1.371638298034668	-3.175095319747925	-484.63134765625	-0.0	-0.0	-0.0	-0.0	-0.0	-0.0	162558.5	-20460.67578125	-1395.9918212890625
0.1575	-0.0	-0.0	-0.0	-0.0	-0.0	-0.0	-2.263312578201294	-3.933862447738648	-479.3571166992188	-0.0	-0.0	-0.0	-0.0	-0.0	-0.0	160723.125	-20129.4296875	-1456.941162109375
0.158	-0.0	-0.0	-0.0	-0.0	-0.0	-0.0	-2.48643159866333	-4.9056315422058105	-476.7715148925781	-0.0	-0.0	-0.0	-0.0	-0.0	-0.0	159813.515625	-19798.263671875	-1576.0543212890625
0.1585	-0.0	-0.0	-0.0	-0.0	-0.0	-0.0	-3.279646873474121	-4.766730785369873	-477.10003662109375	-0.0	-0.0	-0.0	-0.0	-0.0	-0.0	159498.296875	-20101.369140625	-1694.3935546875
0.159	-0.0	-0.0	-0.0	-0.0	-0.0	-0.0	-4.429938793182373	-4.509981632232666	-480.5796508789063	-0.0	-0.0	-0.0	-0.0	-0.0	-0.0	159762.6875	-20342.330078125	-2020.5145263671875
0.1595	-0.0	-0.0	-0.0	-0.0	-0.0	-0.0	-4.698723793029785	-3.67562198638916	-482.5391540527344	-0.0	-0.0	-0.0	-0.0	-0.0	-0.0	160571.984375	-20784.53125	-2348.72021484375
0.16	-0.0	-0.0	-0.0	-0.0	-0.0	-0.0	-4.664990425109863	-2.914615631103516	-486.7173461914063	-0.0	-0.0	-0.0	-0.0	-0.0	-0.0	161618.765625	-20984.041015625	-2406.84521484375
